<svg data-v-423bf9ae="" xmlns="http://www.w3.org/2000/svg" viewBox="0 0 548.1481384876303 60" class="font"><!----><!----><defs data-v-423bf9ae=""><linearGradient data-v-423bf9ae="" gradientTransform="rotate(25)" id="6ad53b54-97cf-4b39-b72a-06c1a4636b33" x1="0%" y1="0%" x2="100%" y2="0%"><stop data-v-423bf9ae="" offset="0%" style="stop-color: rgb(0, 10, 104); stop-opacity: 1;"></stop><stop data-v-423bf9ae="" offset="100%" style="stop-color: rgb(0, 196, 238); stop-opacity: 1;"></stop></linearGradient></defs><g data-v-423bf9ae="" id="e86c0fdd-0c8c-467f-bdf9-44971f6ac7c3" fill="url(#6ad53b54-97cf-4b39-b72a-06c1a4636b33)" transform="matrix(5.6980053264473165,0,0,5.6980053264473165,-4.843299580389612,-22.735042022120943)"><path d="M6.99 14.35L6.99 14.08L5.80 14.08L5.80 9.42C5.80 7.92 5.03 7.10 3.49 7.10C2.17 7.10 1.48 7.67 1.09 8.58L1.34 8.69C1.74 7.77 2.42 7.36 3.49 7.36C4.80 7.36 5.50 8.01 5.50 9.46L5.50 10.50L3.51 10.50C1.48 10.50 0.85 11.35 0.85 12.53C0.85 13.80 1.68 14.52 3.14 14.52C4.44 14.52 5.11 13.94 5.46 13.27L5.50 13.27L5.50 13.94C5.50 14.22 5.63 14.35 5.91 14.35ZM3.14 14.25C1.99 14.25 1.18 13.72 1.18 12.74L1.18 12.32C1.18 11.38 1.86 10.75 3.53 10.75L5.50 10.75L5.50 12.28C5.50 13.59 4.40 14.25 3.14 14.25ZM9.03 14.35L9.03 9.28C9.03 7.99 10.05 7.36 11.19 7.36C12.56 7.36 13.34 8.13 13.34 9.84L13.34 14.35L13.64 14.35L13.64 9.31C13.64 8.01 14.64 7.36 15.79 7.36C17.19 7.36 17.95 8.13 17.95 9.84L17.95 14.35L18.24 14.35L18.24 9.80C18.24 8.04 17.40 7.10 15.82 7.10C14.50 7.10 13.76 7.76 13.50 8.67L13.44 8.67C13.16 7.64 12.36 7.10 11.21 7.10C9.97 7.10 9.32 7.70 9.07 8.33L9.03 8.33L9.03 7.27L8.74 7.27L8.74 14.35ZM26.56 14.35L26.56 14.08L25.37 14.08L25.37 9.42C25.37 7.92 24.60 7.10 23.06 7.10C21.74 7.10 21.06 7.67 20.66 8.58L20.92 8.69C21.31 7.77 21.99 7.36 23.06 7.36C24.37 7.36 25.07 8.01 25.07 9.46L25.07 10.50L23.09 10.50C21.06 10.50 20.43 11.35 20.43 12.53C20.43 13.80 21.25 14.52 22.71 14.52C24.01 14.52 24.68 13.94 25.03 13.27L25.07 13.27L25.07 13.94C25.07 14.22 25.20 14.35 25.48 14.35ZM22.71 14.25C21.56 14.25 20.75 13.72 20.75 12.74L20.75 12.32C20.75 11.38 21.43 10.75 23.10 10.75L25.07 10.75L25.07 12.28C25.07 13.59 23.97 14.25 22.71 14.25ZM32.59 14.35L32.59 14.08L27.73 14.08L32.45 7.56L32.45 7.27L27.57 7.27L27.57 7.53L32.14 7.53L27.43 14.06L27.43 14.35ZM36.62 14.52C37.98 14.52 38.91 13.78 39.33 12.61L39.07 12.52C38.64 13.66 37.81 14.25 36.62 14.25C34.94 14.25 33.98 13.05 33.98 11.14L33.98 10.77L39.44 10.77L39.44 10.63C39.44 8.46 38.28 7.10 36.57 7.10C34.75 7.10 33.66 8.39 33.66 10.81C33.66 13.26 34.78 14.52 36.62 14.52ZM36.57 7.36C38.09 7.36 39.12 8.58 39.12 10.44L39.12 10.50L33.98 10.50L33.98 10.47C33.98 8.57 34.92 7.36 36.57 7.36ZM44.79 10.22L44.79 9.94L41.58 9.94L41.58 10.22ZM49.25 14.52C50.69 14.52 51.59 13.82 51.59 12.60C51.59 11.35 50.79 10.84 49.56 10.64L48.94 10.54C47.74 10.35 47.17 9.94 47.17 8.89C47.17 7.90 47.95 7.36 49.13 7.36C50.25 7.36 50.79 7.83 51.23 8.32L51.45 8.12C50.99 7.60 50.34 7.10 49.11 7.10C47.85 7.10 46.87 7.71 46.87 8.90C46.87 10.14 47.64 10.63 48.89 10.82L49.50 10.92C50.68 11.10 51.30 11.55 51.30 12.61C51.30 13.66 50.58 14.25 49.25 14.25C48.22 14.25 47.53 13.93 46.89 13.05L46.63 13.22C47.29 14.14 48.12 14.52 49.25 14.52ZM56.20 14.52C58.04 14.52 59.14 13.26 59.14 10.81C59.14 8.36 58.04 7.10 56.20 7.10C54.35 7.10 53.26 8.36 53.26 10.81C53.26 13.26 54.35 14.52 56.20 14.52ZM56.20 14.25C54.52 14.25 53.58 13.05 53.58 11.14L53.58 10.47C53.58 8.57 54.52 7.36 56.20 7.36C57.88 7.36 58.81 8.57 58.81 10.47L58.81 11.14C58.81 13.05 57.88 14.25 56.20 14.25ZM61.70 14.35L61.99 14.35L61.99 7.53L63.62 7.53L63.62 7.27L61.99 7.27L61.99 4.26L63.62 4.26L63.62 3.99L62.10 3.99C61.82 3.99 61.70 4.12 61.70 4.40L61.70 7.27L60.40 7.27L60.40 7.53L61.70 7.53ZM67.66 14.35L67.66 14.08L66.08 14.08L66.08 7.53L67.77 7.53L67.77 7.27L66.08 7.27L66.08 5.25L65.79 5.25L65.79 6.92C65.79 7.17 65.72 7.27 65.46 7.27L64.46 7.27L64.46 7.53L65.79 7.53L65.79 13.94C65.79 14.22 65.91 14.35 66.19 14.35ZM71.02 14.35L71.39 14.35L73.43 7.74L73.47 7.74L75.52 14.35L75.88 14.35L78.04 7.27L77.74 7.27L75.73 13.97L75.68 13.97L73.61 7.27L73.30 7.27L71.23 13.97L71.19 13.97L69.17 7.27L68.87 7.27ZM85.37 14.35L85.37 14.08L84.18 14.08L84.18 9.42C84.18 7.92 83.41 7.10 81.87 7.10C80.56 7.10 79.87 7.67 79.48 8.58L79.73 8.69C80.12 7.77 80.81 7.36 81.87 7.36C83.19 7.36 83.89 8.01 83.89 9.46L83.89 10.50L81.90 10.50C79.87 10.50 79.24 11.35 79.24 12.53C79.24 13.80 80.07 14.52 81.52 14.52C82.82 14.52 83.50 13.94 83.85 13.27L83.89 13.27L83.89 13.94C83.89 14.22 84.01 14.35 84.29 14.35ZM81.52 14.25C80.37 14.25 79.56 13.72 79.56 12.74L79.56 12.32C79.56 11.38 80.25 10.75 81.91 10.75L83.89 10.75L83.89 12.28C83.89 13.59 82.78 14.25 81.52 14.25ZM87.42 14.35L87.42 9.46C87.42 8.16 88.48 7.53 89.63 7.53L90.24 7.53L90.24 7.27L89.67 7.27C88.37 7.27 87.78 7.83 87.46 8.48L87.42 8.48L87.42 7.27L87.12 7.27L87.12 14.35ZM94.23 14.52C95.59 14.52 96.52 13.78 96.94 12.61L96.68 12.52C96.25 13.66 95.42 14.25 94.23 14.25C92.55 14.25 91.59 13.05 91.59 11.14L91.59 10.77L97.05 10.77L97.05 10.63C97.05 8.46 95.89 7.10 94.18 7.10C92.36 7.10 91.27 8.39 91.27 10.81C91.27 13.26 92.39 14.52 94.23 14.52ZM94.18 7.36C95.70 7.36 96.73 8.58 96.73 10.44L96.73 10.50L91.59 10.50L91.59 10.47C91.59 8.57 92.53 7.36 94.18 7.36Z"></path></g><!----><!----></svg>